# xmcd
#
# Track frame offsets: 
#        150
#        15648
#        33165
#        48717
#        60957
#        78341
#        93408
#        110832
#        127436
#        140089
#        154545
#        172170
#        188988
#        216451
#        235182
#        247618
#        266706
#        279484
#        291858
#        312640
#
# Disc length: 4494 seconds
#
# Revision: 0
# Processed by: cddbd v1.5.2PL0 Copyright (c) Steve Scherf et al.
# Submitted via: ExactAudioCopy v1.0b4
#
DISCID=2f118c14
DTITLE=Thin Line Between Love And Hate-The Persuaders - The Persuaders
DYEAR=2007
DGENRE=Soul
TTITLE0=Thin Line Between Love And Hate
TTITLE1=Let's Get Down Together
TTITLE2=Blood Brothers
TTITLE3=You Musta Put Something In Your Love
TTITLE4=Thanks For Loving Me
TTITLE5=Love Gonna Pack Up (And Walk Down)
TTITLE6=If This Is What Yo Call Love (I Don't Want No Part Of It)
TTITLE7=Mr. Sunshine
TTITLE8=Thigh Spy
TTITLE9=Can't Go No Further And Do No Better
TTITLE10=Peace In The Valley
TTITLE11=Please Stay
TTITLE12=If You Feel Like I Do
TTITLE13=Trying Girls Out
TTITLE14=It's Too Heavy For You
TTITLE15=Bald Bold And Beautifu Girl
TTITLE16=What Is The Definition Of Love
TTITLE17=Love Goes Good When Things Go Bad
TTITLE18=I Wat To  Make It With You
TTITLE19=You Still Love Me (After All You've Been Through)
EXTD=
EXTT0=
EXTT1=
EXTT2=
EXTT3=
EXTT4=
EXTT5=
EXTT6=
EXTT7=
EXTT8=
EXTT9=
EXTT10=
EXTT11=
EXTT12=
EXTT13=
EXTT14=
EXTT15=
EXTT16=
EXTT17=
EXTT18=
EXTT19=
PLAYORDER=
